<?xml version="1.0" standalone="no"?>
<!DOCTYPE svg PUBLIC "-//W3C//DTD SVG 20010904//EN"
 "http://www.w3.org/TR/2001/REC-SVG-20010904/DTD/svg10.dtd">
<svg version="1.0" xmlns="http://www.w3.org/2000/svg"
 width="608.000000pt" height="635.000000pt" viewBox="0 0 608.000000 635.000000"
 preserveAspectRatio="xMidYMid meet">

<g transform="translate(0.000000,635.000000) scale(0.100000,-0.100000)"
fill="#000000" stroke="none">
<path d="M3850 6280 c-1827 -64 -1761 -59 -1845 -123 -102 -78 -1932 -1728
-1950 -1758 -11 -19 -27 -63 -36 -99 -14 -58 -14 -72 -1 -130 8 -36 27 -84 43
-106 19 -28 376 -320 1064 -870 569 -455 1032 -831 1028 -835 -5 -4 -378 -154
-831 -333 -452 -179 -839 -339 -861 -354 -54 -39 -97 -106 -113 -182 -13 -58
-13 -73 1 -132 10 -40 29 -85 47 -110 52 -70 1070 -1159 1110 -1186 20 -14 68
-33 105 -42 63 -17 73 -17 131 -2 35 8 850 282 1812 609 1856 631 1798 609
1859 694 34 47 624 1523 644 1611 14 62 14 74 -2 137 -19 78 -56 135 -112 174
-21 15 -627 264 -1346 555 -719 291 -1310 532 -1313 535 -7 7 -35 349 -29 355
2 2 550 48 1217 102 813 66 1232 104 1271 115 114 31 175 98 206 222 15 62 22
163 36 494 17 390 17 420 1 483 -40 162 -161 238 -373 235 -48 -1 -842 -28
-1763 -59z m1420 -428 c28 -14 36 -24 38 -51 4 -40 -24 -75 -83 -102 -75 -35
-249 -18 -332 31 -31 18 -46 18 -300 10 -647 -22 -1101 -39 -1148 -44 -22 -3
-94 -8 -160 -11 -66 -3 -136 -8 -155 -10 -174 -19 -278 -16 -236 7 21 12 188
24 536 38 146 6 355 15 465 20 110 5 371 17 580 26 l380 17 50 28 c97 54 295
76 365 41z m-2336 -1781 c23 -11 69 -31 104 -45 34 -14 134 -66 221 -116 249
-142 400 -210 1096 -490 358 -144 681 -278 720 -299 135 -70 194 -156 161
-234 -31 -76 -78 -71 -285 33 -75 37 -393 171 -707 298 -678 274 -753 306
-907 383 -144 72 -241 135 -318 207 -95 88 -173 221 -156 266 8 21 22 20 71
-3z"/>
</g>
</svg>
